<svg width="285.221" height="238.207" viewBox="0 0 285.221 238.207" xmlns="http://www.w3.org/2000/svg" xmlns:xlink="http://www.w3.org/1999/xlink" overflow="hidden"><g id="그룹_110" transform="translate(79.876 1.5)"><path d="M303.029 668.889 284.815 685.366 295.262 699.119 327.462 675.46Z" id="패스_126" stroke="#070203" stroke-width="3" stroke-linecap="round" stroke-linejoin="round" fill="#FFFFFF" transform="translate(-242.374 -506.381)"/><path d="M265.825 611.175 246.146 612.608 246.146 629.572 274.027 630.609Z" id="패스_127" stroke="#070203" stroke-width="3" stroke-miterlimit="10" fill="#FFFFFF" transform="translate(-226.902 -483.29)"/><path d="M342.37 473.066 393.665 469.903 406.586 473.203 411.274 504.731 401.524 526.255 398.7 536.1C399.3 542.257 368.819 587.869 368.819 587.869L325.609 583.155C325.609 583.155 314.231 584.855 296.987 572.801 276.769 558.668 275.023 536.101 275.023 536.101 286.356 537.646 299.833 526.914 299.833 526.914 320.256 506.158 318.08 490.1 318.08 490.1 309.04 453.939 316.741 430.167 316.741 430.167L333.482 430.167C337.5 445.904 342.37 473.067 342.37 473.067" id="패스_128" stroke="#070203" stroke-width="3" stroke-linecap="round" stroke-linejoin="round" fill="#FFFFFF" transform="translate(-238.456 -410.869)"/><path d="M504.995 528.917C504.995 528.917 503.488 523.937 516.546 523.937L534.292 523.937 534.292 531.3 516.378 531.3C516.378 531.3 510.023 530.981 508.153 537.007" id="패스_129" stroke="#070203" stroke-width="3" stroke-linecap="round" stroke-linejoin="round" fill="#070203" transform="translate(-330.447 -448.385)"/><path d="M445.3 464.86C445.3 464.86 442.956 452.918 429.228 448.119 415.5 443.32 407.911 445.775 400.768 448.119 393.625 450.463 388.937 455.374 387.375 458.61 383.988 464.948 383.54 472.449 386.147 479.146 389.942 488.746 401.884 493.209 410.589 494.102 419.294 494.995 425.321 494.548 430.679 493.32 436.104 491.889 440.992 488.901 444.741 484.726 447.552 486.374 450.958 486.661 454.005 485.507 459.362 483.607 460.813 480.819 461.594 475.574 462.375 470.329 459.027 466.645 456.125 464.974 453.518 463.582 450.46 463.3 447.643 464.192Z" id="패스_130" stroke="#070203" stroke-width="3" stroke-linecap="round" stroke-linejoin="round" fill="#FFFFFF" transform="translate(-282.229 -416.949)"/><ellipse cx="1.516" cy="1.516" rx="1.516" ry="1.516" id="타원_98" fill="#070203" transform="translate(135.081 51.427)"/><ellipse cx="1.516" cy="1.516" rx="1.516" ry="1.516" id="타원_99" fill="#070203" transform="translate(124.952 50.713)"/><ellipse cx="1.516" cy="1.516" rx="1.516" ry="1.516" id="타원_100" fill="#070203" transform="translate(129.776 53.746)"/><path d="M435.277 499.21C433.895 500.369 432.114 500.939 430.316 500.8 427.324 500.549 426.404 499.21 426.404 499.21" id="패스_131" stroke="#070203" stroke-width="3" stroke-linecap="round" stroke-linejoin="round" fill="#FFFFFF" transform="translate(-299.024 -438.492)"/><path d="M386.084 470.755C386.084 470.755 406.401 471.165 416.492 463.355 416.492 463.355 426.273 472.28 445.96 472.055" id="패스_132" stroke="#070203" stroke-width="3" stroke-linecap="round" stroke-linejoin="round" fill="#FFFFFF" transform="translate(-282.892 -424.146)"/><path d="M467.781 513.4C467.781 513.4 479.981 527.425 478.904 550.193 477.827 572.961 444.967 572.961 427.411 563.252L434.511 547.18C441.917 545.573 449.495 544.898 457.068 545.171" id="패스_133" stroke="#070203" stroke-width="3" stroke-linecap="round" stroke-linejoin="round" fill="#FFFFFF" transform="translate(-299.427 -444.168)"/><line x1="0" y1="0" x2="0" y2="14.518" id="선_14" stroke="#070203" stroke-width="3" stroke-linecap="round" stroke-linejoin="round" fill="#FFFFFF" transform="translate(149.366 86.601)"/><ellipse cx="11.27" cy="11.27" rx="11.27" ry="11.27" id="타원_101" stroke="#070203" stroke-width="3" stroke-linecap="round" stroke-linejoin="round" fill="#FFFFFF" transform="translate(113.681 96.325)"/><ellipse cx="11.27" cy="11.27" rx="11.27" ry="11.27" id="타원_102" stroke="#070203" stroke-width="3" stroke-linecap="round" stroke-linejoin="round" fill="#FFFFFF" transform="translate(75.882 0)"/><ellipse cx="5.211" cy="5.211" rx="5.211" ry="5.211" id="타원_103" stroke="#070203" stroke-width="3" stroke-linecap="round" stroke-linejoin="round" fill="#FFFFFF" transform="translate(151.714 24.655)"/><ellipse cx="5.211" cy="5.211" rx="5.211" ry="5.211" id="타원_104" stroke="#070203" stroke-width="3" stroke-linecap="round" stroke-linejoin="round" fill="#FFFFFF" transform="translate(158.629 16.431)"/><ellipse cx="5.211" cy="5.211" rx="5.211" ry="5.211" id="타원_105" stroke="#070203" stroke-width="3" stroke-linecap="round" stroke-linejoin="round" fill="#FFFFFF" transform="translate(165.544 8.207)"/><path d="M474.617 446.863 462.049 447.063 455.588 436.281 449.205 447.764 461.773 447.564 468.234 458.346Z" id="패스_134" stroke="#070203" stroke-width="3" stroke-linecap="round" stroke-linejoin="round" fill="#FFFFFF" transform="translate(-308.147 -413.316)"/><path d="M233.311 598.919 225.722 598.919C225.722 598.919 226.722 589.349 225.722 584.438 224.722 579.527 223.043 576.96 221.705 576.96 218.245 576.96 217.377 579.197 216.373 581.206 215.369 583.215 213.573 599.743 214.197 607.206 214.786 614.24 218.357 616.926 221.597 616.923 224.837 616.92 233.315 615.887 233.315 615.887Z" id="패스_135" stroke="#070203" stroke-width="3" stroke-miterlimit="10" fill="#FFFFFF" transform="translate(-214.068 -469.6)"/><path d="M216.689 589.228C216.689 589.228 218.735 592.136 226.771 589.346" id="패스_136" stroke="#070203" stroke-width="3" stroke-miterlimit="10" fill="#FFFFFF" transform="translate(-215.116 -474.508)"/><path d="M214.07 621.425C214.07 621.425 224.384 623.63 225.723 634.47" id="패스_137" stroke="#070203" stroke-width="3" stroke-miterlimit="10" fill="#FFFFFF" transform="translate(-214.069 -487.391)"/><g id="그룹_109" transform="translate(64.783 140.717)"><ellipse cx="46.969" cy="46.969" rx="46.969" ry="46.969" id="타원_106" stroke="#070203" stroke-width="3" stroke-linecap="round" stroke-linejoin="round" fill="#FFFFFF" transform="translate(34.549 0)"/><ellipse cx="41.674" cy="41.674" rx="41.674" ry="41.674" id="타원_107" stroke="#070203" stroke-width="3" stroke-linecap="round" stroke-linejoin="round" fill="#FFFFFF" transform="translate(39.844 5.295)"/><ellipse cx="7.89" cy="7.89" rx="7.89" ry="7.89" id="타원_108" stroke="#070203" stroke-width="3" stroke-linecap="round" stroke-linejoin="round" fill="#FFFFFF" transform="translate(74.647 42.229)"/><line x1="0" y1="0" x2="1.019" y2="36.935" id="선_15" stroke="#070203" stroke-width="3" stroke-linecap="round" stroke-linejoin="round" fill="#FFFFFF" transform="translate(81.518 5.295)"/><line x1="0" y1="0" x2="0" y2="30.553" id="선_16" stroke="#070203" stroke-width="3" stroke-linecap="round" stroke-linejoin="round" fill="#FFFFFF" transform="translate(82.537 58.009)"/><line x1="0" y1="0" x2="34.685" y2="0" id="선_17" stroke="#070203" stroke-width="3" stroke-linecap="round" stroke-linejoin="round" fill="#FFFFFF" transform="translate(39.962 50.119)"/><line x1="0" y1="0" x2="32.648" y2="0" id="선_18" stroke="#070203" stroke-width="3" stroke-linecap="round" stroke-linejoin="round" fill="#FFFFFF" transform="translate(90.427 50.119)"/><line x1="25.956" y1="25.956" x2="0" y2="0" id="선_19" stroke="#070203" stroke-width="3" stroke-linecap="round" stroke-linejoin="round" fill="#FFFFFF" transform="translate(50.992 18.595)"/><line x1="0" y1="0" x2="21.797" y2="21.797" id="선_20" stroke="#070203" stroke-width="3" stroke-linecap="round" stroke-linejoin="round" fill="#FFFFFF" transform="translate(88.395 55.39)"/><line x1="0" y1="24.848" x2="24.848" y2="0" id="선_21" stroke="#070203" stroke-width="3" stroke-linecap="round" stroke-linejoin="round" fill="#FFFFFF" transform="translate(88.126 19.703)"/><line x1="22.738" y1="0" x2="0" y2="22.738" id="선_22" stroke="#070203" stroke-width="3" stroke-linecap="round" stroke-linejoin="round" fill="#FFFFFF" transform="translate(54.21 55.687)"/><ellipse cx="15.278" cy="15.278" rx="15.278" ry="15.278" id="타원_109" stroke="#070203" stroke-width="3" stroke-linecap="round" stroke-linejoin="round" fill="#FFFFFF" transform="matrix(1 0 0 1 0 63.935)"/><ellipse cx="2.651" cy="2.651" rx="2.651" ry="2.651" id="타원_110" stroke="#070203" stroke-width="3" stroke-linecap="round" stroke-linejoin="round" fill="#FFFFFF" transform="translate(12.969 77.62)"/><path d="M347.867 731.612 347.525 719.2 347.525 686.119" id="패스_138" stroke="#070203" stroke-width="3" stroke-linecap="round" stroke-linejoin="round" fill="#FFFFFF" transform="translate(-332.247 -653.992)"/><line x1="0" y1="0" x2="0" y2="10.268" id="선_23" stroke="#070203" stroke-width="3" stroke-linecap="round" stroke-linejoin="round" fill="#FFFFFF" transform="translate(15.62 82.923)"/><line x1="0" y1="0" x2="11.656" y2="0" id="선_24" stroke="#070203" stroke-width="3" stroke-linecap="round" stroke-linejoin="round" fill="#FFFFFF" transform="translate(1.312 80.271)"/><line x1="0" y1="0" x2="10.972" y2="0" id="선_25" stroke="#070203" stroke-width="3" stroke-linecap="round" stroke-linejoin="round" fill="#FFFFFF" transform="translate(18.272 80.271)"/><line x1="8.723" y1="8.723" x2="0" y2="0" id="선_26" stroke="#070203" stroke-width="3" stroke-linecap="round" stroke-linejoin="round" fill="#FFFFFF" transform="translate(5.019 69.677)"/><line x1="0" y1="0" x2="7.325" y2="7.325" id="선_27" stroke="#070203" stroke-width="3" stroke-linecap="round" stroke-linejoin="round" fill="#FFFFFF" transform="translate(17.589 82.043)"/><line x1="0" y1="8.35" x2="8.35" y2="0" id="선_28" stroke="#070203" stroke-width="3" stroke-linecap="round" stroke-linejoin="round" fill="#FFFFFF" transform="translate(17.498 70.05)"/><line x1="7.641" y1="0" x2="0" y2="7.641" id="선_29" stroke="#070203" stroke-width="3" stroke-linecap="round" stroke-linejoin="round" fill="#FFFFFF" transform="translate(6.101 82.143)"/><line x1="0" y1="0" x2="18.821" y2="0" id="선_30" stroke="#070203" stroke-width="3" stroke-linecap="round" stroke-linejoin="round" fill="#FFFFFF" transform="translate(18.272 64.23)"/></g><path d="M439.594 624.114 435.233 610.083 384.373 610.083" id="패스_139" stroke="#070203" stroke-width="6" stroke-linecap="round" stroke-linejoin="round" fill="none" transform="translate(-282.207 -482.853)"/><path d="M325.685 686.091 305.028 686.091 259.838 719.2 241.309 719.2" id="패스_140" stroke="#070203" stroke-width="6" stroke-linecap="round" stroke-linejoin="round" fill="none" transform="translate(-224.967 -513.264)"/><path d="M257 694.427C257 694.427 250.243 683.655 247.7 680.136 245.414 676.967 242.733 674.863 239.832 676.286 237.538 677.411 236.819 681.308 238.66 685.326 240.501 689.344 249.877 705.16 252.723 707.592 255.823 710.239 257.578 711.442 261.428 709.433 265.278 707.424 276.378 701.898 276.378 701.898L265.93 688.144Z" id="패스_141" stroke="#070203" stroke-width="3" stroke-linecap="round" stroke-linejoin="round" fill="#FFFFFF" transform="translate(-223.489 -509.159)"/><path d="M239.356 688.2C239.356 688.2 244.211 690.265 248.396 683.01" id="패스_142" stroke="#070203" stroke-width="3" stroke-linecap="round" stroke-linejoin="round" fill="none" transform="translate(-224.186 -512.029)"/><path d="M259.862 724.909C259.862 724.909 267.569 722.085 272.662 727.58" id="패스_143" stroke="#070203" stroke-width="3" stroke-linecap="round" stroke-linejoin="round" fill="none" transform="translate(-232.39 -528.505)"/></g><g id="그룹_115" transform="matrix(1 0 0 1 0 5.843)"><path d="M-12999.1 3270.35-12999.1 3256.29C-12996.8 3255.56-12994.3 3256.46-12992.9 3258.49" id="패스_154" stroke="#000000" stroke-width="3" stroke-linecap="round" stroke-linejoin="round" fill="none" transform="translate(13006.3 -3256.05)"/><g id="타원_117" stroke="#000000" stroke-width="3" stroke-linecap="round" fill="#FFFFFF" transform="matrix(1 0 0 1 0 11.128)"><ellipse cx="4.011" cy="4.298" rx="4.011" ry="4.298" stroke="none"/><ellipse cx="4.011" cy="4.298" rx="2.511" ry="2.798" fill="none"/></g></g><g id="그룹_116" transform="matrix(0.990268 0.139173 -0.139173 0.990268 53.208 18.217)"><g id="타원_117-2" stroke="#000000" stroke-width="3" stroke-linecap="round" fill="#FFFFFF" transform="matrix(1 0 0 1 0 13.017)"><ellipse cx="4.394" cy="4.394" rx="4.394" ry="4.394" stroke="none"/><ellipse cx="4.394" cy="4.394" rx="2.894" ry="2.894" fill="none"/></g><g id="타원_118" stroke="#000000" stroke-width="3" stroke-linecap="round" fill="#FFFFFF" transform="translate(13.181 13.017)"><ellipse cx="4.394" cy="4.394" rx="4.394" ry="4.394" stroke="none"/><ellipse cx="4.394" cy="4.394" rx="2.894" ry="2.894" fill="none"/></g><path d="M0 14.962 0 0 12.505 0 12.505 14.962" id="패스_155" stroke="#000000" stroke-width="3" stroke-linejoin="round" fill="none" transform="translate(6.674 0)"/><path d="M0 0 12.322 0" id="패스_156" stroke="#000000" stroke-width="3" fill="none" transform="translate(6.674 5.448)"/></g></svg>