<svg width="800.612" height="238.396" viewBox="0 0 800.612 238.396" xmlns="http://www.w3.org/2000/svg" xmlns:xlink="http://www.w3.org/1999/xlink" overflow="hidden"><g id="그룹_117" transform="translate(-924.11 -469.663)"><g id="그룹_106" transform="translate(925.61 518.124)"><g id="그룹_105"><path d="M404.146 248.67C404.146 248.67 385.682 264.899 385.446 281.948 385.213 298.981 387.79 303.777 391.987 308.211L407.443 323.579 463.935 328.169 485.967 317.381C487.428 316.345 488.806 315.196 490.088 313.945 494.758 309.275 498.262 301.334 498.262 295.729 498.262 290.124 498.962 281.016 492.662 268.171 486.362 255.326 471.425 247.871 471.425 247.871" id="패스_88" stroke="#070203" stroke-width="3" stroke-linecap="round" stroke-linejoin="round" fill="#FFFFFF" transform="translate(-374.165 -206.671)"/><path d="M427.478 347.093 413.187 345.7 385.304 342.98 367.479 341.241 369.114 377.674 498.497 374.474 498.497 354.023 479.284 352.148 458.272 350.098" id="패스_89" stroke="#070203" stroke-width="3" stroke-linecap="round" stroke-linejoin="round" fill="#FFFFFF" transform="translate(-367.479 -241.438)"/><path d="M419.572 202.628C419.572 202.628 422.024 190.133 436.387 185.112 450.75 180.091 458.687 182.66 466.164 185.112 473.641 187.564 478.541 192.702 480.176 196.089 481.811 199.476 485.431 207.532 481.461 217.575 477.491 227.618 465 232.288 455.888 233.222 446.776 234.156 440.474 233.689 434.869 232.405 429.264 231.121 422.958 226.917 420.156 223.413 417.215 225.137 413.652 225.438 410.464 224.231 404.858 222.246 403.341 219.331 402.523 213.838 401.705 208.345 405.209 204.496 408.245 202.744 410.972 201.288 414.172 200.994 417.119 201.927Z" id="패스_90" stroke="#070203" stroke-width="3" stroke-linecap="round" stroke-linejoin="round" fill="#FFFFFF" transform="translate(-380.483 -182.231)"/><ellipse cx="1.586" cy="1.586" rx="1.586" ry="1.586" id="타원_95" fill="#070203" transform="translate(65.197 24.075)"/><ellipse cx="1.586" cy="1.586" rx="1.586" ry="1.586" id="타원_96" fill="#070203" transform="translate(75.795 23.329)"/><ellipse cx="1.586" cy="1.586" rx="1.586" ry="1.586" id="타원_97" fill="#070203" transform="translate(70.748 26.501)"/><path d="M474.456 236.077C475.902 237.289 477.765 237.887 479.646 237.741 482.776 237.478 483.739 236.077 483.739 236.077" id="패스_91" stroke="#070203" stroke-width="3" stroke-linecap="round" stroke-linejoin="round" fill="#FFFFFF" transform="translate(-407.312 -202.281)"/><path d="M430.448 206.027C430.448 206.027 431.883 211.851 435.824 212.9 439.765 213.949 442.743 212.372 443.268 211.234 443.793 210.096 443.619 207.468 444.582 206.855 445.545 206.242 447.122 206.942 448.874 207.03 450.626 207.118 452.727 206.942 454.129 204.315 455.531 201.688 454.041 201.863 455.092 200.549 456.143 199.235 458.332 200.024 459.909 198.798 461.486 197.572 461.309 195.557 462.273 195.47 463.237 195.383 463.128 196.87 464.846 197.835 466.564 198.8 466.126 197.66 467.352 198.535 468.578 199.41 467.615 201.776 468.929 203.264 470.243 204.752 471.293 206.064 474.272 206.064 477.251 206.064 476.987 204.664 478.388 205.889 479.789 207.114 479.264 209.125 480.402 210.489 481.54 211.853 482.416 213.198 484.693 213.662 486.59 214.088 488.578 213.818 490.293 212.902 491.454 212.214 492.539 211.405 493.53 210.489" id="패스_92" stroke="#070203" stroke-width="3" stroke-linecap="round" stroke-linejoin="round" fill="#FFFFFF" transform="translate(-390.926 -187.159)"/><line x1="0" y1="9.203" x2="7.788" y2="0" id="선_2" stroke="#070203" stroke-width="3" stroke-linecap="round" stroke-linejoin="round" fill="#FFFFFF" transform="translate(23.792 85.555)"/><path d="M417.713 318.541C416.769 324.39 420.745 329.897 426.595 330.841 427.184 330.936 427.781 330.982 428.378 330.978 430.266 330.978 432.12 330.481 433.754 329.536" id="패스_93" stroke="#070203" stroke-width="3" stroke-linecap="round" stroke-linejoin="round" fill="#FFFFFF" transform="translate(-386.133 -232.986)"/><line x1="3.662" y1="15.881" x2="0" y2="0" id="선_3" stroke="#070203" stroke-width="3" stroke-linecap="round" stroke-linejoin="round" fill="#FFFFFF" transform="translate(107.728 84.579)"/><path d="M440.3 343.77C441.43 340.889 442.493 337.291 442.323 336.27 442.301 336.192 442.264 336.118 442.214 336.054" id="패스_94" stroke="#070203" stroke-width="3" stroke-linecap="round" stroke-linejoin="round" fill="#FFFFFF" transform="translate(-394.595 -239.509)"/><path d="M370.492 401.127 370.083 397.39 499.466 394.19 499.466 397.656Z" id="패스_95" stroke="#070203" stroke-width="3" stroke-linecap="round" stroke-linejoin="round" fill="#FFFFFF" transform="translate(-368.449 -261.156)"/><line x1="0" y1="0" x2="0" y2="34.125" id="선_4" stroke="#070203" stroke-width="3" stroke-linecap="round" stroke-linejoin="round" fill="#FFFFFF" transform="translate(19.208 101.676)"/><line x1="0" y1="0" x2="0" y2="31.568" id="선_5" stroke="#070203" stroke-width="3" stroke-linecap="round" stroke-linejoin="round" fill="#FFFFFF" transform="translate(38.301 103.47)"/><line x1="0" y1="0" x2="0" y2="29.456" id="선_6" stroke="#070203" stroke-width="3" stroke-linecap="round" stroke-linejoin="round" fill="#FFFFFF" transform="translate(57.394 105.401)"/><line x1="0" y1="0" x2="0" y2="27.121" id="선_7" stroke="#070203" stroke-width="3" stroke-linecap="round" stroke-linejoin="round" fill="#FFFFFF" transform="translate(76.487 107.264)"/><line x1="0" y1="0" x2="0" y2="24.831" id="선_8" stroke="#070203" stroke-width="3" stroke-linecap="round" stroke-linejoin="round" fill="#FFFFFF" transform="translate(95.579 109.083)"/><line x1="0" y1="0" x2="0" y2="22.452" id="선_9" stroke="#070203" stroke-width="3" stroke-linecap="round" stroke-linejoin="round" fill="#FFFFFF" transform="translate(114.672 110.99)"/><path d="M380.508 404.977 381.38 452.142 385.409 452.142 386.635 404.977" id="패스_96" stroke="#070203" stroke-width="3" stroke-linecap="round" stroke-linejoin="round" fill="#FFFFFF" transform="translate(-372.33 -265.171)"/><path d="M557.144 400.229 558.376 450.374 562.4 450.374 563.276 400.229" id="패스_97" stroke="#070203" stroke-width="3" stroke-linecap="round" stroke-linejoin="round" fill="#FFFFFF" transform="translate(-438.101 -263.403)"/><path d="M439.929 403.03 440.989 430.879 460.782 430.879 461.831 402.441Z" id="패스_98" stroke="#070203" stroke-width="3" stroke-linecap="round" stroke-linejoin="round" fill="#FFFFFF" transform="translate(-394.456 -264.227)"/><path d="M482.091 401.9 482.091 430.461 501.7 430.461 503.63 401.321Z" id="패스_99" stroke="#070203" stroke-width="3" stroke-linecap="round" stroke-linejoin="round" fill="#FFFFFF" transform="translate(-410.155 -263.81)"/><path d="M430.806 458.085C430.806 458.085 417.611 459.019 415.626 460.07 413.641 461.121 411.072 462.87 411.539 464.97 412.006 467.07 413.407 468.94 417.845 468.823 422.283 468.706 435.645 469.173 440.289 468.064 444.933 466.955 449.724 466.604 450.189 460.649 450.454 456.353 450.454 452.045 450.189 447.749L430.4 447.749Z" id="패스_100" stroke="#070203" stroke-width="3" stroke-linecap="round" stroke-linejoin="round" fill="#FFFFFF" transform="translate(-383.864 -281.098)"/><path d="M501.9 459.019C501.9 459.019 510.364 459.39 515.1 459.954 520 460.538 521.055 462.173 521.172 463.454 521.289 464.735 521.989 468.603 512.998 468.83 504.007 469.057 497.533 469.653 492.713 468.83 487.893 468.007 482.538 467.739 481.942 459.717 481.569 455.736 481.569 451.729 481.942 447.748L501.555 447.748Z" id="패스_101" stroke="#070203" stroke-width="3" stroke-linecap="round" stroke-linejoin="round" fill="#FFFFFF" transform="translate(-410.004 -281.098)"/><line x1="0" y1="17.516" x2="0" y2="0" id="선_10" stroke="#070203" stroke-width="3" stroke-linecap="round" stroke-linejoin="round" fill="#FFFFFF" transform="translate(39.522 57.764)"/><line x1="0" y1="16.523" x2="0" y2="0" id="선_11" stroke="#070203" stroke-width="3" stroke-linecap="round" stroke-linejoin="round" fill="#FFFFFF" transform="translate(97.258 59.866)"/><path d="M427.446 304.973C432.841 302.429 439.277 304.741 441.82 310.136 443.239 313.146 443.192 316.642 441.691 319.612" id="패스_102" stroke="#070203" stroke-width="3" stroke-linecap="round" stroke-linejoin="round" fill="#FFFFFF" transform="translate(-389.808 -227.548)"/><path d="M449.036 328.911C448.548 329.867 447.92 330.745 447.173 331.517" id="패스_103" stroke="#070203" stroke-width="3" stroke-linecap="round" stroke-linejoin="round" fill="#FFFFFF" transform="translate(-397.153 -236.847)"/><path d="M445.75 333.063C445.042 333.799 444.234 334.432 443.35 334.943" id="패스_104" stroke="#070203" stroke-width="3" stroke-linecap="round" stroke-linejoin="round" fill="#FFFFFF" transform="translate(-395.73 -238.393)"/><path d="M421.2 308.441C419.375 310.103 418.175 312.34 417.8 314.78" id="패스_105" stroke="#070203" stroke-width="3" stroke-linecap="round" stroke-linejoin="round" fill="#FFFFFF" transform="translate(-386.214 -229.225)"/><path d="M425.87 305.588C424.9 306.049 424.005 306.653 423.213 307.379" id="패스_106" stroke="#070203" stroke-width="3" stroke-linecap="round" stroke-linejoin="round" fill="#FFFFFF" transform="translate(-388.232 -228.163)"/><path d="M512.128 334.894C512.977 335.533 513.916 336.043 514.915 336.407" id="패스_107" stroke="#070203" stroke-width="3" stroke-linecap="round" stroke-linejoin="round" fill="#FFFFFF" transform="translate(-421.339 -239.075)"/><path d="M511.525 334.388C511.169 334.125 510.83 333.84 510.509 333.536" id="패스_108" stroke="#070203" stroke-width="3" stroke-linecap="round" stroke-linejoin="round" fill="#FFFFFF" transform="translate(-420.737 -238.57)"/><path d="M530.721 316.986C532.181 322.751 528.691 328.609 522.926 330.07 520.822 330.602 518.606 330.487 516.569 329.739" id="패스_109" stroke="#070203" stroke-width="3" stroke-linecap="round" stroke-linejoin="round" fill="#FFFFFF" transform="translate(-422.993 -232.407)"/><path d="M508.542 322.515C504.23 318.417 504.058 311.599 508.156 307.287 510.55 304.769 514.013 303.56 517.454 304.041" id="패스_110" stroke="#070203" stroke-width="3" stroke-linecap="round" stroke-linejoin="round" fill="#FFFFFF" transform="translate(-418.769 -227.548)"/><path d="M529.568 305.487C532.558 306.858 534.763 309.513 535.561 312.704" id="패스_111" stroke="#070203" stroke-width="3" stroke-linecap="round" stroke-linejoin="round" fill="#FFFFFF" transform="translate(-427.833 -228.125)"/><path d="M527.758 304.971C526.79 304.532 525.762 304.239 524.708 304.102" id="패스_112" stroke="#070203" stroke-width="3" stroke-linecap="round" stroke-linejoin="round" fill="#FFFFFF" transform="translate(-426.024 -227.61)"/><path d="M421.975 301.344 415.014 294.191 412.754 296.391 419.318 303.136" id="패스_113" stroke="#070203" stroke-width="3" stroke-linecap="round" stroke-linejoin="round" fill="#FFFFFF" transform="translate(-384.338 -223.919)"/><line x1="0" y1="0" x2="16.315" y2="1.592" id="선_12" stroke="#070203" stroke-width="3" stroke-linecap="round" stroke-linejoin="round" fill="#FFFFFF" transform="translate(67.274 106.365)"/><path d="M457.152 344.049C457.188 343.854 457.241 343.663 457.308 343.477L447.173 333.063" id="패스_114" stroke="#070203" stroke-width="3" stroke-linecap="round" stroke-linejoin="round" fill="#FFFFFF" transform="translate(-397.153 -238.393)"/><path d="M463.03 350.566C462.633 352.555 463.924 354.49 465.913 354.887 467.903 355.284 469.837 353.993 470.234 352.003 470.282 351.764 470.306 351.52 470.305 351.276" id="패스_115" stroke="#070203" stroke-width="3" stroke-linecap="round" stroke-linejoin="round" fill="#FFFFFF" transform="translate(-403.032 -244.911)"/><path d="M450.142 328.911 460.673 339.732C462.59 339.074 464.677 340.095 465.334 342.011 465.467 342.398 465.534 342.803 465.533 343.212" id="패스_116" stroke="#070203" stroke-width="3" stroke-linecap="round" stroke-linejoin="round" fill="#FFFFFF" transform="translate(-398.259 -236.847)"/><path d="M511.573 348.632C511.51 347.814 511.177 347.04 510.627 346.432L514.356 337.302" id="패스_117" stroke="#070203" stroke-width="3" stroke-linecap="round" stroke-linejoin="round" fill="#FFFFFF" transform="translate(-420.781 -239.973)"/><path d="M507.781 354.936C507.942 356.959 506.433 358.729 504.41 358.89 502.388 359.051 500.617 357.542 500.456 355.52 500.422 355.088 500.464 354.653 500.581 354.236" id="패스_118" stroke="#070203" stroke-width="3" stroke-linecap="round" stroke-linejoin="round" fill="#FFFFFF" transform="translate(-416.988 -246.276)"/><path d="M500.657 347.033C501.069 345.506 502.42 344.419 504 344.344L507.861 334.894" id="패스_119" stroke="#070203" stroke-width="3" stroke-linecap="round" stroke-linejoin="round" fill="#FFFFFF" transform="translate(-417.068 -239.075)"/><path d="M527.758 297.051 533.08 284.024 530.161 282.832 524.707 296.182" id="패스_120" stroke="#070203" stroke-width="3" stroke-linecap="round" stroke-linejoin="round" fill="#FFFFFF" transform="translate(-426.023 -219.69)"/><line x1="0" y1="0" x2="0.547" y2="11.223" id="선_13" stroke="#070203" stroke-width="3" stroke-linecap="round" stroke-linejoin="round" fill="#FFFFFF" transform="translate(87.129 91.773)"/><path d="M421.261 466.509C421.261 466.509 426.545 468.666 426.195 475.801" id="패스_121" stroke="#070203" stroke-width="3" stroke-linecap="round" stroke-linejoin="round" fill="#FFFFFF" transform="translate(-387.505 -288.082)"/><path d="M528.835 467.216C528.835 467.216 523.228 468.678 526.615 476.162" id="패스_122" stroke="#070203" stroke-width="3" stroke-linecap="round" stroke-linejoin="round" fill="#FFFFFF" transform="translate(-426.329 -288.345)"/><path d="M454.475 474.757C454.475 474.757 457.051 465.124 466.198 464.882" id="패스_123" stroke="#070203" stroke-width="3" stroke-linecap="round" stroke-linejoin="round" fill="#FFFFFF" transform="translate(-399.872 -287.476)"/><path d="M481.938 464.546C481.938 464.546 491.106 464.646 492.805 475.087" id="패스_124" stroke="#070203" stroke-width="3" stroke-linecap="round" stroke-linejoin="round" fill="#FFFFFF" transform="translate(-410.098 -287.351)"/></g><path d="" id="패스_125" stroke="#070203" stroke-width="3" stroke-linecap="round" stroke-linejoin="round" fill="#FFFFFF" transform="translate(-377.15 -241.438)"/></g><g id="그룹_110" transform="translate(1227.92 471.351)"><path d="M303.029 668.889 284.815 685.366 295.262 699.119 327.462 675.46Z" id="패스_126" stroke="#070203" stroke-width="3" stroke-linecap="round" stroke-linejoin="round" fill="#FFFFFF" transform="translate(-242.374 -506.381)"/><path d="M265.825 611.175 246.146 612.608 246.146 629.572 274.027 630.609Z" id="패스_127" stroke="#070203" stroke-width="3" stroke-miterlimit="10" fill="#FFFFFF" transform="translate(-226.902 -483.29)"/><path d="M342.37 473.066 393.665 469.903 406.586 473.203 411.274 504.731 401.524 526.255 398.7 536.1C399.3 542.257 368.819 587.869 368.819 587.869L325.609 583.155C325.609 583.155 314.231 584.855 296.987 572.801 276.769 558.668 275.023 536.101 275.023 536.101 286.356 537.646 299.833 526.914 299.833 526.914 320.256 506.158 318.08 490.1 318.08 490.1 309.04 453.939 316.741 430.167 316.741 430.167L333.482 430.167C337.5 445.904 342.37 473.067 342.37 473.067" id="패스_128" stroke="#070203" stroke-width="3" stroke-linecap="round" stroke-linejoin="round" fill="#FFFFFF" transform="translate(-238.456 -410.869)"/><path d="M504.995 528.917C504.995 528.917 503.488 523.937 516.546 523.937L534.292 523.937 534.292 531.3 516.378 531.3C516.378 531.3 510.023 530.981 508.153 537.007" id="패스_129" stroke="#070203" stroke-width="3" stroke-linecap="round" stroke-linejoin="round" fill="#070203" transform="translate(-330.447 -448.385)"/><path d="M445.3 464.86C445.3 464.86 442.956 452.918 429.228 448.119 415.5 443.32 407.911 445.775 400.768 448.119 393.625 450.463 388.937 455.374 387.375 458.61 383.988 464.948 383.54 472.449 386.147 479.146 389.942 488.746 401.884 493.209 410.589 494.102 419.294 494.995 425.321 494.548 430.679 493.32 436.104 491.889 440.992 488.901 444.741 484.726 447.552 486.374 450.958 486.661 454.005 485.507 459.362 483.607 460.813 480.819 461.594 475.574 462.375 470.329 459.027 466.645 456.125 464.974 453.518 463.582 450.46 463.3 447.643 464.192Z" id="패스_130" stroke="#070203" stroke-width="3" stroke-linecap="round" stroke-linejoin="round" fill="#FFFFFF" transform="translate(-282.229 -416.949)"/><ellipse cx="1.516" cy="1.516" rx="1.516" ry="1.516" id="타원_98" fill="#070203" transform="translate(135.081 51.427)"/><ellipse cx="1.516" cy="1.516" rx="1.516" ry="1.516" id="타원_99" fill="#070203" transform="translate(124.952 50.713)"/><ellipse cx="1.516" cy="1.516" rx="1.516" ry="1.516" id="타원_100" fill="#070203" transform="translate(129.776 53.746)"/><path d="M435.277 499.21C433.895 500.369 432.114 500.939 430.316 500.8 427.324 500.549 426.404 499.21 426.404 499.21" id="패스_131" stroke="#070203" stroke-width="3" stroke-linecap="round" stroke-linejoin="round" fill="#FFFFFF" transform="translate(-299.024 -438.492)"/><path d="M386.084 470.755C386.084 470.755 406.401 471.165 416.492 463.355 416.492 463.355 426.273 472.28 445.96 472.055" id="패스_132" stroke="#070203" stroke-width="3" stroke-linecap="round" stroke-linejoin="round" fill="#FFFFFF" transform="translate(-282.892 -424.146)"/><path d="M467.781 513.4C467.781 513.4 479.981 527.425 478.904 550.193 477.827 572.961 444.967 572.961 427.411 563.252L434.511 547.18C441.917 545.573 449.495 544.898 457.068 545.171" id="패스_133" stroke="#070203" stroke-width="3" stroke-linecap="round" stroke-linejoin="round" fill="#FFFFFF" transform="translate(-299.427 -444.168)"/><line x1="0" y1="0" x2="0" y2="14.518" id="선_14" stroke="#070203" stroke-width="3" stroke-linecap="round" stroke-linejoin="round" fill="#FFFFFF" transform="translate(149.366 86.601)"/><ellipse cx="11.27" cy="11.27" rx="11.27" ry="11.27" id="타원_101" stroke="#070203" stroke-width="3" stroke-linecap="round" stroke-linejoin="round" fill="#FFFFFF" transform="translate(113.681 96.325)"/><ellipse cx="11.27" cy="11.27" rx="11.27" ry="11.27" id="타원_102" stroke="#070203" stroke-width="3" stroke-linecap="round" stroke-linejoin="round" fill="#FFFFFF" transform="translate(75.882 0)"/><ellipse cx="5.211" cy="5.211" rx="5.211" ry="5.211" id="타원_103" stroke="#070203" stroke-width="3" stroke-linecap="round" stroke-linejoin="round" fill="#FFFFFF" transform="translate(151.714 24.655)"/><ellipse cx="5.211" cy="5.211" rx="5.211" ry="5.211" id="타원_104" stroke="#070203" stroke-width="3" stroke-linecap="round" stroke-linejoin="round" fill="#FFFFFF" transform="translate(158.629 16.431)"/><ellipse cx="5.211" cy="5.211" rx="5.211" ry="5.211" id="타원_105" stroke="#070203" stroke-width="3" stroke-linecap="round" stroke-linejoin="round" fill="#FFFFFF" transform="translate(165.544 8.207)"/><path d="M474.617 446.863 462.049 447.063 455.588 436.281 449.205 447.764 461.773 447.564 468.234 458.346Z" id="패스_134" stroke="#070203" stroke-width="3" stroke-linecap="round" stroke-linejoin="round" fill="#FFFFFF" transform="translate(-308.147 -413.316)"/><path d="M233.311 598.919 225.722 598.919C225.722 598.919 226.722 589.349 225.722 584.438 224.722 579.527 223.043 576.96 221.705 576.96 218.245 576.96 217.377 579.197 216.373 581.206 215.369 583.215 213.573 599.743 214.197 607.206 214.786 614.24 218.357 616.926 221.597 616.923 224.837 616.92 233.315 615.887 233.315 615.887Z" id="패스_135" stroke="#070203" stroke-width="3" stroke-miterlimit="10" fill="#FFFFFF" transform="translate(-214.068 -469.6)"/><path d="M216.689 589.228C216.689 589.228 218.735 592.136 226.771 589.346" id="패스_136" stroke="#070203" stroke-width="3" stroke-miterlimit="10" fill="#FFFFFF" transform="translate(-215.116 -474.508)"/><path d="M214.07 621.425C214.07 621.425 224.384 623.63 225.723 634.47" id="패스_137" stroke="#070203" stroke-width="3" stroke-miterlimit="10" fill="#FFFFFF" transform="translate(-214.069 -487.391)"/><g id="그룹_109" transform="translate(64.783 140.717)"><ellipse cx="46.969" cy="46.969" rx="46.969" ry="46.969" id="타원_106" stroke="#070203" stroke-width="3" stroke-linecap="round" stroke-linejoin="round" fill="#FFFFFF" transform="translate(34.549 0)"/><ellipse cx="41.674" cy="41.674" rx="41.674" ry="41.674" id="타원_107" stroke="#070203" stroke-width="3" stroke-linecap="round" stroke-linejoin="round" fill="#FFFFFF" transform="translate(39.844 5.295)"/><ellipse cx="7.89" cy="7.89" rx="7.89" ry="7.89" id="타원_108" stroke="#070203" stroke-width="3" stroke-linecap="round" stroke-linejoin="round" fill="#FFFFFF" transform="translate(74.647 42.229)"/><line x1="0" y1="0" x2="1.019" y2="36.935" id="선_15" stroke="#070203" stroke-width="3" stroke-linecap="round" stroke-linejoin="round" fill="#FFFFFF" transform="translate(81.518 5.295)"/><line x1="0" y1="0" x2="0" y2="30.553" id="선_16" stroke="#070203" stroke-width="3" stroke-linecap="round" stroke-linejoin="round" fill="#FFFFFF" transform="translate(82.537 58.009)"/><line x1="0" y1="0" x2="34.685" y2="0" id="선_17" stroke="#070203" stroke-width="3" stroke-linecap="round" stroke-linejoin="round" fill="#FFFFFF" transform="translate(39.962 50.119)"/><line x1="0" y1="0" x2="32.648" y2="0" id="선_18" stroke="#070203" stroke-width="3" stroke-linecap="round" stroke-linejoin="round" fill="#FFFFFF" transform="translate(90.427 50.119)"/><line x1="25.956" y1="25.956" x2="0" y2="0" id="선_19" stroke="#070203" stroke-width="3" stroke-linecap="round" stroke-linejoin="round" fill="#FFFFFF" transform="translate(50.992 18.595)"/><line x1="0" y1="0" x2="21.797" y2="21.797" id="선_20" stroke="#070203" stroke-width="3" stroke-linecap="round" stroke-linejoin="round" fill="#FFFFFF" transform="translate(88.395 55.39)"/><line x1="0" y1="24.848" x2="24.848" y2="0" id="선_21" stroke="#070203" stroke-width="3" stroke-linecap="round" stroke-linejoin="round" fill="#FFFFFF" transform="translate(88.126 19.703)"/><line x1="22.738" y1="0" x2="0" y2="22.738" id="선_22" stroke="#070203" stroke-width="3" stroke-linecap="round" stroke-linejoin="round" fill="#FFFFFF" transform="translate(54.21 55.687)"/><ellipse cx="15.278" cy="15.278" rx="15.278" ry="15.278" id="타원_109" stroke="#070203" stroke-width="3" stroke-linecap="round" stroke-linejoin="round" fill="#FFFFFF" transform="matrix(1 0 0 1 0 63.935)"/><ellipse cx="2.651" cy="2.651" rx="2.651" ry="2.651" id="타원_110" stroke="#070203" stroke-width="3" stroke-linecap="round" stroke-linejoin="round" fill="#FFFFFF" transform="translate(12.969 77.62)"/><path d="M347.867 731.612 347.525 719.2 347.525 686.119" id="패스_138" stroke="#070203" stroke-width="3" stroke-linecap="round" stroke-linejoin="round" fill="#FFFFFF" transform="translate(-332.247 -653.992)"/><line x1="0" y1="0" x2="0" y2="10.268" id="선_23" stroke="#070203" stroke-width="3" stroke-linecap="round" stroke-linejoin="round" fill="#FFFFFF" transform="translate(15.62 82.923)"/><line x1="0" y1="0" x2="11.656" y2="0" id="선_24" stroke="#070203" stroke-width="3" stroke-linecap="round" stroke-linejoin="round" fill="#FFFFFF" transform="translate(1.312 80.271)"/><line x1="0" y1="0" x2="10.972" y2="0" id="선_25" stroke="#070203" stroke-width="3" stroke-linecap="round" stroke-linejoin="round" fill="#FFFFFF" transform="translate(18.272 80.271)"/><line x1="8.723" y1="8.723" x2="0" y2="0" id="선_26" stroke="#070203" stroke-width="3" stroke-linecap="round" stroke-linejoin="round" fill="#FFFFFF" transform="translate(5.019 69.677)"/><line x1="0" y1="0" x2="7.325" y2="7.325" id="선_27" stroke="#070203" stroke-width="3" stroke-linecap="round" stroke-linejoin="round" fill="#FFFFFF" transform="translate(17.589 82.043)"/><line x1="0" y1="8.35" x2="8.35" y2="0" id="선_28" stroke="#070203" stroke-width="3" stroke-linecap="round" stroke-linejoin="round" fill="#FFFFFF" transform="translate(17.498 70.05)"/><line x1="7.641" y1="0" x2="0" y2="7.641" id="선_29" stroke="#070203" stroke-width="3" stroke-linecap="round" stroke-linejoin="round" fill="#FFFFFF" transform="translate(6.101 82.143)"/><line x1="0" y1="0" x2="18.821" y2="0" id="선_30" stroke="#070203" stroke-width="3" stroke-linecap="round" stroke-linejoin="round" fill="#FFFFFF" transform="translate(18.272 64.23)"/></g><path d="M439.594 624.114 435.233 610.083 384.373 610.083" id="패스_139" stroke="#070203" stroke-width="6" stroke-linecap="round" stroke-linejoin="round" fill="none" transform="translate(-282.207 -482.853)"/><path d="M325.685 686.091 305.028 686.091 259.838 719.2 241.309 719.2" id="패스_140" stroke="#070203" stroke-width="6" stroke-linecap="round" stroke-linejoin="round" fill="none" transform="translate(-224.967 -513.264)"/><path d="M257 694.427C257 694.427 250.243 683.655 247.7 680.136 245.414 676.967 242.733 674.863 239.832 676.286 237.538 677.411 236.819 681.308 238.66 685.326 240.501 689.344 249.877 705.16 252.723 707.592 255.823 710.239 257.578 711.442 261.428 709.433 265.278 707.424 276.378 701.898 276.378 701.898L265.93 688.144Z" id="패스_141" stroke="#070203" stroke-width="3" stroke-linecap="round" stroke-linejoin="round" fill="#FFFFFF" transform="translate(-223.489 -509.159)"/><path d="M239.356 688.2C239.356 688.2 244.211 690.265 248.396 683.01" id="패스_142" stroke="#070203" stroke-width="3" stroke-linecap="round" stroke-linejoin="round" fill="none" transform="translate(-224.186 -512.029)"/><path d="M259.862 724.909C259.862 724.909 267.569 722.085 272.662 727.58" id="패스_143" stroke="#070203" stroke-width="3" stroke-linecap="round" stroke-linejoin="round" fill="none" transform="translate(-232.39 -528.505)"/></g><g id="그룹_111" transform="translate(1604.39 493.728)"><path d="M210.316 255.147C207.239 265.916 210.316 282.547 210.316 282.547 222.066 292.397 281.095 293.32 287.529 284.394 293.963 275.468 293.018 249.253 293.018 249.253L275.018 208.775 229.779 208.775 212.512 230.116Z" id="패스_144" stroke="#070203" stroke-width="3" stroke-linecap="round" stroke-linejoin="round" fill="#FFFFFF" transform="translate(-193.695 -145.929)"/><path d="M257.143 211.744C240.213 215.744 237.505 221.901 237.505 221.901L237.081 236.676C237.081 236.676 262.375 244.063 285.461 224.666 308.547 205.269 268.49 179.879 268.49 179.879L241.239 165.523 206.408 175.205C206.408 175.205 162.051 203.855 177.067 225.975 192.995 249.439 222.151 236.675 222.151 236.675L221.795 221.9C214.182 218.261 206.259 215.31 198.12 213.084" id="패스_145" stroke="#070203" stroke-width="3" stroke-linecap="round" stroke-linejoin="round" fill="#FFFFFF" transform="translate(-173.964 -126.531)"/><ellipse cx="10.518" cy="10.518" rx="10.518" ry="10.518" id="타원_111" stroke="#070203" stroke-width="3" stroke-linecap="round" stroke-linejoin="round" fill="#FFFFFF" transform="translate(51.629 92.806)"/><ellipse cx="10.518" cy="10.518" rx="10.518" ry="10.518" id="타원_112" stroke="#070203" stroke-width="3" stroke-linecap="round" stroke-linejoin="round" fill="#FFFFFF" transform="translate(41.111 92.806)"/><line x1="1.858" y1="0" x2="0" y2="13.148" id="선_31" stroke="#070203" stroke-width="3" stroke-linecap="round" stroke-linejoin="round" fill="#FFFFFF" transform="translate(80.398 72.776)"/><line x1="1.003" y1="0" x2="0" y2="15.726" id="선_32" stroke="#070203" stroke-width="3" stroke-linecap="round" stroke-linejoin="round" fill="#FFFFFF" transform="translate(30.566 72.776)"/><path d="M262.794 394.384 259.44 427.633 236.34 427.633 235.232 395.253" id="패스_146" stroke="#070203" stroke-width="3" stroke-linecap="round" stroke-linejoin="round" fill="#FFFFFF" transform="translate(-177.915 -229.176)"/><path d="M332.464 391.181 329.11 424.43 306.01 424.43 304.737 387.243" id="패스_147" stroke="#070203" stroke-width="3" stroke-linecap="round" stroke-linejoin="round" fill="#FFFFFF" transform="translate(-285.916 -225.973)"/><path d="M260.85 142.56C260.85 142.56 258.695 131.581 246.075 127.169 233.455 122.757 226.475 125.014 219.911 127.169 213.347 129.324 209.035 133.838 207.599 136.814 204.485 142.641 204.073 149.537 206.47 155.693 209.959 164.517 220.937 168.621 228.94 169.442 236.943 170.263 242.484 169.853 247.408 168.724 252.396 167.408 256.89 164.662 260.336 160.824 262.92 162.339 266.051 162.603 268.852 161.542 273.777 159.798 275.111 157.233 275.829 152.41 276.338 148.432 274.338 144.554 270.802 142.662 268.404 141.383 265.593 141.124 263.002 141.944Z" id="패스_148" stroke="#070203" stroke-width="3" stroke-linecap="round" stroke-linejoin="round" fill="#FFFFFF" transform="translate(-174.327 -108.193)"/><ellipse cx="1.394" cy="1.394" rx="1.394" ry="1.394" id="타원_113" fill="#070203" transform="translate(60.795 37.599)"/><ellipse cx="1.394" cy="1.394" rx="1.394" ry="1.394" id="타원_114" fill="#070203" transform="translate(51.483 36.943)"/><ellipse cx="1.394" cy="1.394" rx="1.394" ry="1.394" id="타원_115" fill="#070203" transform="translate(55.918 39.731)"/><path d="M230.849 111.448C228.506 106.781 230.39 101.099 235.057 98.7561 239.623 96.4641 245.184 98.2137 247.615 102.707 248.477 97.5595 253.348 94.0852 258.495 94.9468 261.962 95.5271 264.82 97.9832 265.915 101.323 268.401 96.729 274.141 95.0202 278.734 97.5062 283.328 99.9922 285.037 105.732 282.551 110.326 282.253 110.877 281.901 111.397 281.5 111.878 286.387 113.717 288.858 119.169 287.019 124.056 285.181 128.942 279.729 131.414 274.842 129.575 272.698 128.768 270.92 127.211 269.838 125.192 265.494 127.954 259.738 126.725 256.9 122.43 254.018 126.781 248.154 127.972 243.803 125.09 243.054 124.594 242.38 123.994 241.8 123.307 240.372 128.33 235.142 131.243 230.119 129.815 225.097 128.386 222.183 123.157 223.611 118.134 224.582 114.723 227.379 112.141 230.857 111.448Z" id="패스_149" stroke="#070203" stroke-width="3" stroke-linecap="round" stroke-linejoin="round" fill="#FFFFFF" transform="translate(-196.137 -94.82)"/><ellipse cx="3.907" cy="5.464" rx="3.907" ry="5.464" id="타원_116" stroke="#070203" stroke-width="3" stroke-linecap="round" stroke-linejoin="round" fill="#FFFFFF" transform="translate(52.981 45.967)"/><path d="M299.1 344.658C299.1 344.658 298.037 364.09 295.986 370.247L260.892 371.684 259.758 357.114 256.629 371.684 225.3 368.195C225.3 368.195 222.8 351.302 226.66 341.795 230.52 332.288 299.1 344.658 299.1 344.658Z" id="패스_150" stroke="#070203" stroke-width="3" stroke-linecap="round" stroke-linejoin="round" fill="#FFFFFF" transform="translate(-208.305 -203.977)"/><path d="M230.929 454.673C230.929 454.673 240.365 455.524 245.588 457.781 250.811 460.038 252.497 463.527 249.969 465.781 247.441 468.035 219.976 469.269 216.269 468.654 212.562 468.039 215.932 468.859 211.382 467.628 206.832 466.397 210.055 454.67 210.055 454.67Z" id="패스_151" stroke="#070203" stroke-width="3" stroke-linecap="round" stroke-linejoin="round" fill="#FFFFFF" transform="translate(-151.753 -256.216)"/><path d="M330.636 454.634C330.636 454.634 315.976 454.11 311.896 456.511 306.255 459.831 307.235 462.462 310.731 464.104 314.227 465.746 345.017 469.439 350.093 467.182 355.169 464.925 351.254 454.634 351.254 454.634Z" id="패스_152" stroke="#070203" stroke-width="3" stroke-linecap="round" stroke-linejoin="round" fill="#FFFFFF" transform="translate(-307.887 -256.176)"/></g><path d="M-12972.4 3279.97C-12972.4 3279.97-12956.3 3280.67-12953.2 3287.13-12950.2 3293.59-12952 3301.54-12941.2 3305.58" id="패스_153" stroke="#000000" stroke-width="3" stroke-linecap="round" fill="none" transform="translate(14545.2 -2799.13)"/><g id="그룹_112" transform="translate(1547.05 471.168)"><path d="M-12999.1 3270.35-12999.1 3256.29C-12996.8 3255.56-12994.3 3256.46-12992.9 3258.49" id="패스_154" stroke="#000000" stroke-width="3" stroke-linecap="round" stroke-linejoin="round" fill="none" transform="translate(13006.8 -3256.05)"/><g id="타원_117" stroke="#000000" stroke-width="3" stroke-linecap="round" fill="#FFFFFF" transform="translate(1 10.497)"><ellipse cx="4.011" cy="4.585" rx="4.011" ry="4.585" stroke="none"/><ellipse cx="4.011" cy="4.585" rx="2.511" ry="3.085" fill="none"/></g></g><g id="그룹_115" transform="translate(1148.05 475.694)"><path d="M-12999.1 3270.35-12999.1 3256.29C-12996.8 3255.56-12994.3 3256.46-12992.9 3258.49" id="패스_154-2" stroke="#000000" stroke-width="3" stroke-linecap="round" stroke-linejoin="round" fill="none" transform="translate(13006.3 -3256.05)"/><g id="타원_117-2" stroke="#000000" stroke-width="3" stroke-linecap="round" fill="#FFFFFF" transform="matrix(1 0 0 1 0 11.128)"><ellipse cx="4.011" cy="4.298" rx="4.011" ry="4.298" stroke="none"/><ellipse cx="4.011" cy="4.298" rx="2.511" ry="2.798" fill="none"/></g></g><g id="그룹_113" transform="translate(1500.63 491.012)"><g id="타원_117-3" stroke="#000000" stroke-width="3" stroke-linecap="round" fill="#FFFFFF" transform="matrix(1 0 0 1 0 13.575)"><ellipse cx="4.585" cy="4.011" rx="4.585" ry="4.011" stroke="none"/><ellipse cx="4.585" cy="4.011" rx="3.085" ry="2.511" fill="none"/></g><g id="타원_118" stroke="#000000" stroke-width="3" stroke-linecap="round" fill="#FFFFFF" transform="translate(13.181 13.575)"><circle cx="4.011" cy="4.011" r="4.011" stroke="none"/><circle cx="4.011" cy="4.011" r="2.511" fill="none"/></g><path d="M-13056.4 3288.22-13056.4 3273.26-13043.9 3273.26-13043.9 3288.22" id="패스_155" stroke="#000000" stroke-width="3" stroke-linejoin="round" fill="none" transform="translate(13062.8 -3273.26)"/><path d="M-13056.4 3281.94-13044 3281.94" id="패스_156" stroke="#000000" stroke-width="3" fill="none" transform="translate(13062.8 -3276.49)"/></g><g id="그룹_116" transform="matrix(0.990268 0.139173 -0.139173 0.990268 1201.26 488.068)"><g id="타원_117-4" stroke="#000000" stroke-width="3" stroke-linecap="round" fill="#FFFFFF" transform="matrix(1 0 0 1 0 13.017)"><ellipse cx="4.394" cy="4.394" rx="4.394" ry="4.394" stroke="none"/><ellipse cx="4.394" cy="4.394" rx="2.894" ry="2.894" fill="none"/></g><g id="타원_118-2" stroke="#000000" stroke-width="3" stroke-linecap="round" fill="#FFFFFF" transform="translate(13.181 13.017)"><ellipse cx="4.394" cy="4.394" rx="4.394" ry="4.394" stroke="none"/><ellipse cx="4.394" cy="4.394" rx="2.894" ry="2.894" fill="none"/></g><path d="M0 14.962 0 0 12.505 0 12.505 14.962" id="패스_155-2" stroke="#000000" stroke-width="3" stroke-linejoin="round" fill="none" transform="translate(6.674 0)"/><path d="M0 0 12.322 0" id="패스_156-2" stroke="#000000" stroke-width="3" fill="none" transform="translate(6.674 5.448)"/></g></g></svg>