<svg width="134.018" height="191.298" viewBox="0 0 134.018 191.298" xmlns="http://www.w3.org/2000/svg" xmlns:xlink="http://www.w3.org/1999/xlink" overflow="hidden"><g id="그룹_105" transform="translate(1.5 1.496)"><path d="M404.146 248.67C404.146 248.67 385.682 264.899 385.446 281.948 385.213 298.981 387.79 303.777 391.987 308.211L407.443 323.579 463.935 328.169 485.967 317.381C487.428 316.345 488.806 315.196 490.088 313.945 494.758 309.275 498.262 301.334 498.262 295.729 498.262 290.124 498.962 281.016 492.662 268.171 486.362 255.326 471.425 247.871 471.425 247.871" id="패스_88" stroke="#070203" stroke-width="3" stroke-linecap="round" stroke-linejoin="round" fill="#FFFFFF" transform="translate(-374.165 -206.671)"/><path d="M427.478 347.093 413.187 345.7 385.304 342.98 367.479 341.241 369.114 377.674 498.497 374.474 498.497 354.023 479.284 352.148 458.272 350.098" id="패스_89" stroke="#070203" stroke-width="3" stroke-linecap="round" stroke-linejoin="round" fill="#FFFFFF" transform="translate(-367.479 -241.438)"/><path d="M419.572 202.628C419.572 202.628 422.024 190.133 436.387 185.112 450.75 180.091 458.687 182.66 466.164 185.112 473.641 187.564 478.541 192.702 480.176 196.089 481.811 199.476 485.431 207.532 481.461 217.575 477.491 227.618 465 232.288 455.888 233.222 446.776 234.156 440.474 233.689 434.869 232.405 429.264 231.121 422.958 226.917 420.156 223.413 417.215 225.137 413.652 225.438 410.464 224.231 404.858 222.246 403.341 219.331 402.523 213.838 401.705 208.345 405.209 204.496 408.245 202.744 410.972 201.288 414.172 200.994 417.119 201.927Z" id="패스_90" stroke="#070203" stroke-width="3" stroke-linecap="round" stroke-linejoin="round" fill="#FFFFFF" transform="translate(-380.483 -182.231)"/><ellipse cx="1.586" cy="1.586" rx="1.586" ry="1.586" id="타원_95" fill="#070203" transform="translate(65.197 24.075)"/><ellipse cx="1.586" cy="1.586" rx="1.586" ry="1.586" id="타원_96" fill="#070203" transform="translate(75.795 23.329)"/><ellipse cx="1.586" cy="1.586" rx="1.586" ry="1.586" id="타원_97" fill="#070203" transform="translate(70.748 26.501)"/><path d="M474.456 236.077C475.902 237.289 477.765 237.887 479.646 237.741 482.776 237.478 483.739 236.077 483.739 236.077" id="패스_91" stroke="#070203" stroke-width="3" stroke-linecap="round" stroke-linejoin="round" fill="#FFFFFF" transform="translate(-407.312 -202.281)"/><path d="M430.448 206.027C430.448 206.027 431.883 211.851 435.824 212.9 439.765 213.949 442.743 212.372 443.268 211.234 443.793 210.096 443.619 207.468 444.582 206.855 445.545 206.242 447.122 206.942 448.874 207.03 450.626 207.118 452.727 206.942 454.129 204.315 455.531 201.688 454.041 201.863 455.092 200.549 456.143 199.235 458.332 200.024 459.909 198.798 461.486 197.572 461.309 195.557 462.273 195.47 463.237 195.383 463.128 196.87 464.846 197.835 466.564 198.8 466.126 197.66 467.352 198.535 468.578 199.41 467.615 201.776 468.929 203.264 470.243 204.752 471.293 206.064 474.272 206.064 477.251 206.064 476.987 204.664 478.388 205.889 479.789 207.114 479.264 209.125 480.402 210.489 481.54 211.853 482.416 213.198 484.693 213.662 486.59 214.088 488.578 213.818 490.293 212.902 491.454 212.214 492.539 211.405 493.53 210.489" id="패스_92" stroke="#070203" stroke-width="3" stroke-linecap="round" stroke-linejoin="round" fill="#FFFFFF" transform="translate(-390.926 -187.159)"/><line x1="0" y1="9.203" x2="7.788" y2="0" id="선_2" stroke="#070203" stroke-width="3" stroke-linecap="round" stroke-linejoin="round" fill="#FFFFFF" transform="translate(23.792 85.555)"/><path d="M417.713 318.541C416.769 324.39 420.745 329.897 426.595 330.841 427.184 330.936 427.781 330.982 428.378 330.978 430.266 330.978 432.12 330.481 433.754 329.536" id="패스_93" stroke="#070203" stroke-width="3" stroke-linecap="round" stroke-linejoin="round" fill="#FFFFFF" transform="translate(-386.133 -232.986)"/><line x1="3.662" y1="15.881" x2="0" y2="0" id="선_3" stroke="#070203" stroke-width="3" stroke-linecap="round" stroke-linejoin="round" fill="#FFFFFF" transform="translate(107.728 84.579)"/><path d="M440.3 343.77C441.43 340.889 442.493 337.291 442.323 336.27 442.301 336.192 442.264 336.118 442.214 336.054" id="패스_94" stroke="#070203" stroke-width="3" stroke-linecap="round" stroke-linejoin="round" fill="#FFFFFF" transform="translate(-394.595 -239.509)"/><path d="M370.492 401.127 370.083 397.39 499.466 394.19 499.466 397.656Z" id="패스_95" stroke="#070203" stroke-width="3" stroke-linecap="round" stroke-linejoin="round" fill="#FFFFFF" transform="translate(-368.449 -261.156)"/><line x1="0" y1="0" x2="0" y2="34.125" id="선_4" stroke="#070203" stroke-width="3" stroke-linecap="round" stroke-linejoin="round" fill="#FFFFFF" transform="translate(19.208 101.676)"/><line x1="0" y1="0" x2="0" y2="31.568" id="선_5" stroke="#070203" stroke-width="3" stroke-linecap="round" stroke-linejoin="round" fill="#FFFFFF" transform="translate(38.301 103.47)"/><line x1="0" y1="0" x2="0" y2="29.456" id="선_6" stroke="#070203" stroke-width="3" stroke-linecap="round" stroke-linejoin="round" fill="#FFFFFF" transform="translate(57.394 105.401)"/><line x1="0" y1="0" x2="0" y2="27.121" id="선_7" stroke="#070203" stroke-width="3" stroke-linecap="round" stroke-linejoin="round" fill="#FFFFFF" transform="translate(76.487 107.264)"/><line x1="0" y1="0" x2="0" y2="24.831" id="선_8" stroke="#070203" stroke-width="3" stroke-linecap="round" stroke-linejoin="round" fill="#FFFFFF" transform="translate(95.579 109.083)"/><line x1="0" y1="0" x2="0" y2="22.452" id="선_9" stroke="#070203" stroke-width="3" stroke-linecap="round" stroke-linejoin="round" fill="#FFFFFF" transform="translate(114.672 110.99)"/><path d="M380.508 404.977 381.38 452.142 385.409 452.142 386.635 404.977" id="패스_96" stroke="#070203" stroke-width="3" stroke-linecap="round" stroke-linejoin="round" fill="#FFFFFF" transform="translate(-372.33 -265.171)"/><path d="M557.144 400.229 558.376 450.374 562.4 450.374 563.276 400.229" id="패스_97" stroke="#070203" stroke-width="3" stroke-linecap="round" stroke-linejoin="round" fill="#FFFFFF" transform="translate(-438.101 -263.403)"/><path d="M439.929 403.03 440.989 430.879 460.782 430.879 461.831 402.441Z" id="패스_98" stroke="#070203" stroke-width="3" stroke-linecap="round" stroke-linejoin="round" fill="#FFFFFF" transform="translate(-394.456 -264.227)"/><path d="M482.091 401.9 482.091 430.461 501.7 430.461 503.63 401.321Z" id="패스_99" stroke="#070203" stroke-width="3" stroke-linecap="round" stroke-linejoin="round" fill="#FFFFFF" transform="translate(-410.155 -263.81)"/><path d="M430.806 458.085C430.806 458.085 417.611 459.019 415.626 460.07 413.641 461.121 411.072 462.87 411.539 464.97 412.006 467.07 413.407 468.94 417.845 468.823 422.283 468.706 435.645 469.173 440.289 468.064 444.933 466.955 449.724 466.604 450.189 460.649 450.454 456.353 450.454 452.045 450.189 447.749L430.4 447.749Z" id="패스_100" stroke="#070203" stroke-width="3" stroke-linecap="round" stroke-linejoin="round" fill="#FFFFFF" transform="translate(-383.864 -281.098)"/><path d="M501.9 459.019C501.9 459.019 510.364 459.39 515.1 459.954 520 460.538 521.055 462.173 521.172 463.454 521.289 464.735 521.989 468.603 512.998 468.83 504.007 469.057 497.533 469.653 492.713 468.83 487.893 468.007 482.538 467.739 481.942 459.717 481.569 455.736 481.569 451.729 481.942 447.748L501.555 447.748Z" id="패스_101" stroke="#070203" stroke-width="3" stroke-linecap="round" stroke-linejoin="round" fill="#FFFFFF" transform="translate(-410.004 -281.098)"/><line x1="0" y1="17.516" x2="0" y2="0" id="선_10" stroke="#070203" stroke-width="3" stroke-linecap="round" stroke-linejoin="round" fill="#FFFFFF" transform="translate(39.522 57.764)"/><line x1="0" y1="16.523" x2="0" y2="0" id="선_11" stroke="#070203" stroke-width="3" stroke-linecap="round" stroke-linejoin="round" fill="#FFFFFF" transform="translate(97.258 59.866)"/><path d="M427.446 304.973C432.841 302.429 439.277 304.741 441.82 310.136 443.239 313.146 443.192 316.642 441.691 319.612" id="패스_102" stroke="#070203" stroke-width="3" stroke-linecap="round" stroke-linejoin="round" fill="#FFFFFF" transform="translate(-389.808 -227.548)"/><path d="M449.036 328.911C448.548 329.867 447.92 330.745 447.173 331.517" id="패스_103" stroke="#070203" stroke-width="3" stroke-linecap="round" stroke-linejoin="round" fill="#FFFFFF" transform="translate(-397.153 -236.847)"/><path d="M445.75 333.063C445.042 333.799 444.234 334.432 443.35 334.943" id="패스_104" stroke="#070203" stroke-width="3" stroke-linecap="round" stroke-linejoin="round" fill="#FFFFFF" transform="translate(-395.73 -238.393)"/><path d="M421.2 308.441C419.375 310.103 418.175 312.34 417.8 314.78" id="패스_105" stroke="#070203" stroke-width="3" stroke-linecap="round" stroke-linejoin="round" fill="#FFFFFF" transform="translate(-386.214 -229.225)"/><path d="M425.87 305.588C424.9 306.049 424.005 306.653 423.213 307.379" id="패스_106" stroke="#070203" stroke-width="3" stroke-linecap="round" stroke-linejoin="round" fill="#FFFFFF" transform="translate(-388.232 -228.163)"/><path d="M512.128 334.894C512.977 335.533 513.916 336.043 514.915 336.407" id="패스_107" stroke="#070203" stroke-width="3" stroke-linecap="round" stroke-linejoin="round" fill="#FFFFFF" transform="translate(-421.339 -239.075)"/><path d="M511.525 334.388C511.169 334.125 510.83 333.84 510.509 333.536" id="패스_108" stroke="#070203" stroke-width="3" stroke-linecap="round" stroke-linejoin="round" fill="#FFFFFF" transform="translate(-420.737 -238.57)"/><path d="M530.721 316.986C532.181 322.751 528.691 328.609 522.926 330.07 520.822 330.602 518.606 330.487 516.569 329.739" id="패스_109" stroke="#070203" stroke-width="3" stroke-linecap="round" stroke-linejoin="round" fill="#FFFFFF" transform="translate(-422.993 -232.407)"/><path d="M508.542 322.515C504.23 318.417 504.058 311.599 508.156 307.287 510.55 304.769 514.013 303.56 517.454 304.041" id="패스_110" stroke="#070203" stroke-width="3" stroke-linecap="round" stroke-linejoin="round" fill="#FFFFFF" transform="translate(-418.769 -227.548)"/><path d="M529.568 305.487C532.558 306.858 534.763 309.513 535.561 312.704" id="패스_111" stroke="#070203" stroke-width="3" stroke-linecap="round" stroke-linejoin="round" fill="#FFFFFF" transform="translate(-427.833 -228.125)"/><path d="M527.758 304.971C526.79 304.532 525.762 304.239 524.708 304.102" id="패스_112" stroke="#070203" stroke-width="3" stroke-linecap="round" stroke-linejoin="round" fill="#FFFFFF" transform="translate(-426.024 -227.61)"/><path d="M421.975 301.344 415.014 294.191 412.754 296.391 419.318 303.136" id="패스_113" stroke="#070203" stroke-width="3" stroke-linecap="round" stroke-linejoin="round" fill="#FFFFFF" transform="translate(-384.338 -223.919)"/><line x1="0" y1="0" x2="16.315" y2="1.592" id="선_12" stroke="#070203" stroke-width="3" stroke-linecap="round" stroke-linejoin="round" fill="#FFFFFF" transform="translate(67.274 106.365)"/><path d="M457.152 344.049C457.188 343.854 457.241 343.663 457.308 343.477L447.173 333.063" id="패스_114" stroke="#070203" stroke-width="3" stroke-linecap="round" stroke-linejoin="round" fill="#FFFFFF" transform="translate(-397.153 -238.393)"/><path d="M463.03 350.566C462.633 352.555 463.924 354.49 465.913 354.887 467.903 355.284 469.837 353.993 470.234 352.003 470.282 351.764 470.306 351.52 470.305 351.276" id="패스_115" stroke="#070203" stroke-width="3" stroke-linecap="round" stroke-linejoin="round" fill="#FFFFFF" transform="translate(-403.032 -244.911)"/><path d="M450.142 328.911 460.673 339.732C462.59 339.074 464.677 340.095 465.334 342.011 465.467 342.398 465.534 342.803 465.533 343.212" id="패스_116" stroke="#070203" stroke-width="3" stroke-linecap="round" stroke-linejoin="round" fill="#FFFFFF" transform="translate(-398.259 -236.847)"/><path d="M511.573 348.632C511.51 347.814 511.177 347.04 510.627 346.432L514.356 337.302" id="패스_117" stroke="#070203" stroke-width="3" stroke-linecap="round" stroke-linejoin="round" fill="#FFFFFF" transform="translate(-420.781 -239.973)"/><path d="M507.781 354.936C507.942 356.959 506.433 358.729 504.41 358.89 502.388 359.051 500.617 357.542 500.456 355.52 500.422 355.088 500.464 354.653 500.581 354.236" id="패스_118" stroke="#070203" stroke-width="3" stroke-linecap="round" stroke-linejoin="round" fill="#FFFFFF" transform="translate(-416.988 -246.276)"/><path d="M500.657 347.033C501.069 345.506 502.42 344.419 504 344.344L507.861 334.894" id="패스_119" stroke="#070203" stroke-width="3" stroke-linecap="round" stroke-linejoin="round" fill="#FFFFFF" transform="translate(-417.068 -239.075)"/><path d="M527.758 297.051 533.08 284.024 530.161 282.832 524.707 296.182" id="패스_120" stroke="#070203" stroke-width="3" stroke-linecap="round" stroke-linejoin="round" fill="#FFFFFF" transform="translate(-426.023 -219.69)"/><line x1="0" y1="0" x2="0.547" y2="11.223" id="선_13" stroke="#070203" stroke-width="3" stroke-linecap="round" stroke-linejoin="round" fill="#FFFFFF" transform="translate(87.129 91.773)"/><path d="M421.261 466.509C421.261 466.509 426.545 468.666 426.195 475.801" id="패스_121" stroke="#070203" stroke-width="3" stroke-linecap="round" stroke-linejoin="round" fill="#FFFFFF" transform="translate(-387.505 -288.082)"/><path d="M528.835 467.216C528.835 467.216 523.228 468.678 526.615 476.162" id="패스_122" stroke="#070203" stroke-width="3" stroke-linecap="round" stroke-linejoin="round" fill="#FFFFFF" transform="translate(-426.329 -288.345)"/><path d="M454.475 474.757C454.475 474.757 457.051 465.124 466.198 464.882" id="패스_123" stroke="#070203" stroke-width="3" stroke-linecap="round" stroke-linejoin="round" fill="#FFFFFF" transform="translate(-399.872 -287.476)"/><path d="M481.938 464.546C481.938 464.546 491.106 464.646 492.805 475.087" id="패스_124" stroke="#070203" stroke-width="3" stroke-linecap="round" stroke-linejoin="round" fill="#FFFFFF" transform="translate(-410.098 -287.351)"/></g></svg>