<svg width="224.093" height="238.219" viewBox="0 0 224.093 238.219" xmlns="http://www.w3.org/2000/svg" xmlns:xlink="http://www.w3.org/1999/xlink" overflow="hidden"><g id="그룹_111" transform="translate(103.758 24.065)"><path d="M210.316 255.147C207.239 265.916 210.316 282.547 210.316 282.547 222.066 292.397 281.095 293.32 287.529 284.394 293.963 275.468 293.018 249.253 293.018 249.253L275.018 208.775 229.779 208.775 212.512 230.116Z" id="패스_144" stroke="#070203" stroke-width="3" stroke-linecap="round" stroke-linejoin="round" fill="#FFFFFF" transform="translate(-193.695 -145.929)"/><path d="M257.143 211.744C240.213 215.744 237.505 221.901 237.505 221.901L237.081 236.676C237.081 236.676 262.375 244.063 285.461 224.666 308.547 205.269 268.49 179.879 268.49 179.879L241.239 165.523 206.408 175.205C206.408 175.205 162.051 203.855 177.067 225.975 192.995 249.439 222.151 236.675 222.151 236.675L221.795 221.9C214.182 218.261 206.259 215.31 198.12 213.084" id="패스_145" stroke="#070203" stroke-width="3" stroke-linecap="round" stroke-linejoin="round" fill="#FFFFFF" transform="translate(-173.964 -126.531)"/><ellipse cx="10.518" cy="10.518" rx="10.518" ry="10.518" id="타원_111" stroke="#070203" stroke-width="3" stroke-linecap="round" stroke-linejoin="round" fill="#FFFFFF" transform="translate(51.629 92.806)"/><ellipse cx="10.518" cy="10.518" rx="10.518" ry="10.518" id="타원_112" stroke="#070203" stroke-width="3" stroke-linecap="round" stroke-linejoin="round" fill="#FFFFFF" transform="translate(41.111 92.806)"/><line x1="1.858" y1="0" x2="0" y2="13.148" id="선_31" stroke="#070203" stroke-width="3" stroke-linecap="round" stroke-linejoin="round" fill="#FFFFFF" transform="translate(80.398 72.776)"/><line x1="1.003" y1="0" x2="0" y2="15.726" id="선_32" stroke="#070203" stroke-width="3" stroke-linecap="round" stroke-linejoin="round" fill="#FFFFFF" transform="translate(30.566 72.776)"/><path d="M262.794 394.384 259.44 427.633 236.34 427.633 235.232 395.253" id="패스_146" stroke="#070203" stroke-width="3" stroke-linecap="round" stroke-linejoin="round" fill="#FFFFFF" transform="translate(-177.915 -229.176)"/><path d="M332.464 391.181 329.11 424.43 306.01 424.43 304.737 387.243" id="패스_147" stroke="#070203" stroke-width="3" stroke-linecap="round" stroke-linejoin="round" fill="#FFFFFF" transform="translate(-285.916 -225.973)"/><path d="M260.85 142.56C260.85 142.56 258.695 131.581 246.075 127.169 233.455 122.757 226.475 125.014 219.911 127.169 213.347 129.324 209.035 133.838 207.599 136.814 204.485 142.641 204.073 149.537 206.47 155.693 209.959 164.517 220.937 168.621 228.94 169.442 236.943 170.263 242.484 169.853 247.408 168.724 252.396 167.408 256.89 164.662 260.336 160.824 262.92 162.339 266.051 162.603 268.852 161.542 273.777 159.798 275.111 157.233 275.829 152.41 276.338 148.432 274.338 144.554 270.802 142.662 268.404 141.383 265.593 141.124 263.002 141.944Z" id="패스_148" stroke="#070203" stroke-width="3" stroke-linecap="round" stroke-linejoin="round" fill="#FFFFFF" transform="translate(-174.327 -108.193)"/><ellipse cx="1.394" cy="1.394" rx="1.394" ry="1.394" id="타원_113" fill="#070203" transform="translate(60.795 37.599)"/><ellipse cx="1.394" cy="1.394" rx="1.394" ry="1.394" id="타원_114" fill="#070203" transform="translate(51.483 36.943)"/><ellipse cx="1.394" cy="1.394" rx="1.394" ry="1.394" id="타원_115" fill="#070203" transform="translate(55.918 39.731)"/><path d="M230.849 111.448C228.506 106.781 230.39 101.099 235.057 98.7561 239.623 96.4641 245.184 98.2137 247.615 102.707 248.477 97.5595 253.348 94.0852 258.495 94.9468 261.962 95.5271 264.82 97.9832 265.915 101.323 268.401 96.729 274.141 95.0202 278.734 97.5062 283.328 99.9922 285.037 105.732 282.551 110.326 282.253 110.877 281.901 111.397 281.5 111.878 286.387 113.717 288.858 119.169 287.019 124.056 285.181 128.942 279.729 131.414 274.842 129.575 272.698 128.768 270.92 127.211 269.838 125.192 265.494 127.954 259.738 126.725 256.9 122.43 254.018 126.781 248.154 127.972 243.803 125.09 243.054 124.594 242.38 123.994 241.8 123.307 240.372 128.33 235.142 131.243 230.119 129.815 225.097 128.386 222.183 123.157 223.611 118.134 224.582 114.723 227.379 112.141 230.857 111.448Z" id="패스_149" stroke="#070203" stroke-width="3" stroke-linecap="round" stroke-linejoin="round" fill="#FFFFFF" transform="translate(-196.137 -94.82)"/><ellipse cx="3.907" cy="5.464" rx="3.907" ry="5.464" id="타원_116" stroke="#070203" stroke-width="3" stroke-linecap="round" stroke-linejoin="round" fill="#FFFFFF" transform="translate(52.981 45.967)"/><path d="M299.1 344.658C299.1 344.658 298.037 364.09 295.986 370.247L260.892 371.684 259.758 357.114 256.629 371.684 225.3 368.195C225.3 368.195 222.8 351.302 226.66 341.795 230.52 332.288 299.1 344.658 299.1 344.658Z" id="패스_150" stroke="#070203" stroke-width="3" stroke-linecap="round" stroke-linejoin="round" fill="#FFFFFF" transform="translate(-208.305 -203.977)"/><path d="M230.929 454.673C230.929 454.673 240.365 455.524 245.588 457.781 250.811 460.038 252.497 463.527 249.969 465.781 247.441 468.035 219.976 469.269 216.269 468.654 212.562 468.039 215.932 468.859 211.382 467.628 206.832 466.397 210.055 454.67 210.055 454.67Z" id="패스_151" stroke="#070203" stroke-width="3" stroke-linecap="round" stroke-linejoin="round" fill="#FFFFFF" transform="translate(-151.753 -256.216)"/><path d="M330.636 454.634C330.636 454.634 315.976 454.11 311.896 456.511 306.255 459.831 307.235 462.462 310.731 464.104 314.227 465.746 345.017 469.439 350.093 467.182 355.169 464.925 351.254 454.634 351.254 454.634Z" id="패스_152" stroke="#070203" stroke-width="3" stroke-linecap="round" stroke-linejoin="round" fill="#FFFFFF" transform="translate(-307.887 -256.176)"/></g><path d="M-12972.4 3279.97C-12972.4 3279.97-12956.3 3280.67-12953.2 3287.13-12950.2 3293.59-12952 3301.54-12941.2 3305.58" id="패스_153" stroke="#000000" stroke-width="3" stroke-linecap="round" fill="none" transform="translate(13044.5 -3268.79)"/><g id="그룹_112" transform="translate(46.419 1.505)"><path d="M-12999.1 3270.35-12999.1 3256.29C-12996.8 3255.56-12994.3 3256.46-12992.9 3258.49" id="패스_154" stroke="#000000" stroke-width="3" stroke-linecap="round" stroke-linejoin="round" fill="none" transform="translate(13006.8 -3256.05)"/><g id="타원_117" stroke="#000000" stroke-width="3" stroke-linecap="round" fill="#FFFFFF" transform="translate(1 10.497)"><ellipse cx="4.011" cy="4.585" rx="4.011" ry="4.585" stroke="none"/><ellipse cx="4.011" cy="4.585" rx="2.511" ry="3.085" fill="none"/></g></g><g id="그룹_113" transform="matrix(1 0 0 1 0 21.349)"><g id="타원_117-2" stroke="#000000" stroke-width="3" stroke-linecap="round" fill="#FFFFFF" transform="matrix(1 0 0 1 0 13.575)"><ellipse cx="4.585" cy="4.011" rx="4.585" ry="4.011" stroke="none"/><ellipse cx="4.585" cy="4.011" rx="3.085" ry="2.511" fill="none"/></g><g id="타원_118" stroke="#000000" stroke-width="3" stroke-linecap="round" fill="#FFFFFF" transform="translate(13.181 13.575)"><circle cx="4.011" cy="4.011" r="4.011" stroke="none"/><circle cx="4.011" cy="4.011" r="2.511" fill="none"/></g><path d="M-13056.4 3288.22-13056.4 3273.26-13043.9 3273.26-13043.9 3288.22" id="패스_155" stroke="#000000" stroke-width="3" stroke-linejoin="round" fill="none" transform="translate(13062.8 -3273.26)"/><path d="M-13056.4 3281.94-13044 3281.94" id="패스_156" stroke="#000000" stroke-width="3" fill="none" transform="translate(13062.8 -3276.49)"/></g></svg>